HIERARCHY
ROOT newVegas:Hips
{
	OFFSET 0.000000 96.479958 0.000000
	CHANNELS 6 Xposition Yposition Zposition Xrotation Yrotation Zrotation
	JOINT newVegas:Pelvis
	{
		OFFSET 0.000000 0.000000 0.000000
		CHANNELS 3 Xrotation Yrotation Zrotation
		JOINT newVegas:LeftUpLeg
		{
			OFFSET 18.735201 -5.666702 -4.541200
			CHANNELS 3 Xrotation Yrotation Zrotation
			JOINT newVegas:LeftLeg
			{
				OFFSET -0.021200 -31.938179 0.493100
				CHANNELS 3 Xrotation Yrotation Zrotation
				JOINT newVegas:LeftFoot
				{
					OFFSET 0.021200 -31.938179 -4.336299
					CHANNELS 3 Xrotation Yrotation Zrotation
					JOINT newVegas:LeftToeBase
					{
						OFFSET 0.943001 -26.722000 15.023500
						CHANNELS 3 Xrotation Yrotation Zrotation
						End Site
						{
							OFFSET 0.000000 30.670183 0.000000
						}
					}
				}
				JOINT newVegas:Left_PantLeg
				{
					OFFSET 0.663870 -9.044666 -1.108900
					CHANNELS 3 Xrotation Yrotation Zrotation
					End Site
					{
						OFFSET 1.415995 20.635357 0.000000
					}
				}
			}
		}
		JOINT newVegas:RightUpLeg
		{
			OFFSET -18.735201 -5.666702 -4.541200
			CHANNELS 3 Xrotation Yrotation Zrotation
			JOINT newVegas:RightLeg
			{
				OFFSET 0.018946 -31.938133 0.493100
				CHANNELS 3 Xrotation Yrotation Zrotation
				JOINT newVegas:RightFoot
				{
					OFFSET -0.018946 -31.938126 -4.336299
					CHANNELS 3 Xrotation Yrotation Zrotation
					JOINT newVegas:RightToeBase
					{
						OFFSET -0.943001 -26.722004 15.023500
						CHANNELS 3 Xrotation Yrotation Zrotation
						End Site
						{
							OFFSET 0.000000 30.670187 0.000000
						}
					}
				}
				JOINT newVegas:Right_PantLeg
				{
					OFFSET -0.661674 -9.044716 -1.108900
					CHANNELS 3 Xrotation Yrotation Zrotation
					End Site
					{
						OFFSET -1.415958 20.635269 0.000000
					}
				}
			}
		}
	}
	JOINT newVegas:Spine
	{
		OFFSET 0.000000 10.199997 -0.299500
		CHANNELS 3 Xrotation Yrotation Zrotation
		JOINT newVegas:Spine1
		{
			OFFSET 0.000000 11.900002 -1.516600
			CHANNELS 3 Xrotation Yrotation Zrotation
			JOINT newVegas:Spine2
			{
				OFFSET 0.000000 13.600006 -2.842500
				CHANNELS 3 Xrotation Yrotation Zrotation
				JOINT newVegas:Neck
				{
					OFFSET 0.000000 9.624100 -2.890100
					CHANNELS 3 Xrotation Yrotation Zrotation
					JOINT newVegas:Head
					{
						OFFSET 0.000000 14.068802 -1.351900
						CHANNELS 3 Xrotation Yrotation Zrotation
						JOINT newVegas:Hair_Back
						{
							OFFSET 0.000000 3.231903 -17.524799
							CHANNELS 3 Xrotation Yrotation Zrotation
							End Site
							{
								OFFSET 0.000000 19.849884 0.000000
							}
						}
						JOINT newVegas:Hair_Front
						{
							OFFSET 0.000000 31.260406 4.573800
							CHANNELS 3 Xrotation Yrotation Zrotation
							JOINT newVegas:Hair_Front1
							{
								OFFSET 0.000000 2.284103 11.993300
								CHANNELS 3 Xrotation Yrotation Zrotation
								JOINT newVegas:Hair_Front2
								{
									OFFSET 0.000000 2.284103 11.993300
									CHANNELS 3 Xrotation Yrotation Zrotation
									End Site
									{
										OFFSET 0.000000 12.208862 0.000000
									}
								}
							}
						}
						JOINT newVegas:Jowel
						{
							OFFSET 0.000000 -7.458206 6.864100
							CHANNELS 3 Xrotation Yrotation Zrotation
							End Site
							{
								OFFSET 0.000000 19.849884 0.000000
							}
						}
					}
				}
				JOINT newVegas:LeftShoulder
				{
					OFFSET 15.263000 10.923401 -0.547700
					CHANNELS 3 Xrotation Yrotation Zrotation
					JOINT newVegas:LeftArm
					{
						OFFSET 25.438599 -2.830597 -13.032500
						CHANNELS 3 Xrotation Yrotation Zrotation
						JOINT newVegas:LeftForeArm
						{
							OFFSET 29.960503 0.000000 0.000000
							CHANNELS 3 Xrotation Yrotation Zrotation
							JOINT newVegas:LeftHand
							{
								OFFSET 27.849251 0.000000 0.000000
								CHANNELS 3 Xrotation Yrotation Zrotation
								JOINT newVegas:LeftHandThumb1
								{
									OFFSET 4.487587 -3.305161 6.305391
									CHANNELS 3 Xrotation Yrotation Zrotation
									JOINT newVegas:LeftHandThumb2
									{
										OFFSET 5.480453 -3.164139 3.164143
										CHANNELS 3 Xrotation Yrotation Zrotation
										JOINT newVegas:LeftHandThumb3
										{
											OFFSET 5.159721 -2.978973 2.978967
											CHANNELS 3 Xrotation Yrotation Zrotation
											End Site
											{
												OFFSET 2.494507 5.926697 1.738678
											}
										}
									}
								}
								JOINT newVegas:LeftHandIndex1
								{
									OFFSET 18.578728 -0.527832 5.208049
									CHANNELS 3 Xrotation Yrotation Zrotation
									JOINT newVegas:LeftHandIndex2
									{
										OFFSET 3.192009 0.000000 0.000000
										CHANNELS 3 Xrotation Yrotation Zrotation
										JOINT newVegas:LeftHandIndex3
										{
											OFFSET 3.835129 0.000000 0.000000
											CHANNELS 3 Xrotation Yrotation Zrotation
											End Site
											{
												OFFSET -0.034599 3.816971 0.371180
											}
										}
									}
								}
								JOINT newVegas:LeftHandMiddle1
								{
									OFFSET 18.476105 0.000000 0.000000
									CHANNELS 3 Xrotation Yrotation Zrotation
									JOINT newVegas:LeftHandMiddle2
									{
										OFFSET 3.324875 0.000000 0.000000
										CHANNELS 3 Xrotation Yrotation Zrotation
										JOINT newVegas:LeftHandMiddle3
										{
											OFFSET 4.596550 0.000000 0.000000
											CHANNELS 3 Xrotation Yrotation Zrotation
											End Site
											{
												OFFSET 0.057701 4.578827 0.399218
											}
										}
									}
								}
								JOINT newVegas:LeftHandRing1
								{
									OFFSET 17.732719 0.121887 -4.201567
									CHANNELS 3 Xrotation Yrotation Zrotation
									JOINT newVegas:LeftHandRing2
									{
										OFFSET 2.733170 0.000000 0.000000
										CHANNELS 3 Xrotation Yrotation Zrotation
										JOINT newVegas:LeftHandRing3
										{
											OFFSET 3.178268 0.000000 0.000000
											CHANNELS 3 Xrotation Yrotation Zrotation
											End Site
											{
												OFFSET 0.119102 3.170624 0.185394
											}
										}
									}
								}
								JOINT newVegas:LeftHandPinky1
								{
									OFFSET 15.989624 -0.606689 -7.535461
									CHANNELS 3 Xrotation Yrotation Zrotation
									JOINT newVegas:LeftHandPinky2
									{
										OFFSET 2.538986 0.000000 0.000000
										CHANNELS 3 Xrotation Yrotation Zrotation
										JOINT newVegas:LeftHandPinky3
										{
											OFFSET 2.593102 0.000000 0.000000
											CHANNELS 3 Xrotation Yrotation Zrotation
											End Site
											{
												OFFSET -0.150902 2.584198 0.152708
											}
										}
									}
								}
							}
							JOINT newVegas:Left_Sleeve
							{
								OFFSET 0.267448 -0.649796 0.577675
								CHANNELS 3 Xrotation Yrotation Zrotation
								End Site
								{
									OFFSET 0.000000 15.991241 0.000000
								}
							}
							JOINT newVegas:Left_CapeC
							{
								OFFSET 15.715958 -8.608795 -6.935905
								CHANNELS 3 Xrotation Yrotation Zrotation
								JOINT newVegas:Left_CapeC1
								{
									OFFSET 0.000000 -8.688499 0.000000
									CHANNELS 3 Xrotation Yrotation Zrotation
									End Site
									{
										OFFSET 0.000000 8.688499 0.000000
									}
								}
							}
						}
						JOINT newVegas:Left_CapeB
						{
							OFFSET 26.118385 -8.608795 -7.079235
							CHANNELS 3 Xrotation Yrotation Zrotation
							JOINT newVegas:Left_CapeB1
							{
								OFFSET 0.000000 -8.688499 0.000000
								CHANNELS 3 Xrotation Yrotation Zrotation
								End Site
								{
									OFFSET 0.000000 8.688499 0.000000
								}
							}
						}
						JOINT newVegas:Left_CapeA
						{
							OFFSET 5.115639 -8.608795 -10.395809
							CHANNELS 3 Xrotation Yrotation Zrotation
							JOINT newVegas:Left_CapeA1
							{
								OFFSET 0.000000 -8.688499 0.000000
								CHANNELS 3 Xrotation Yrotation Zrotation
								End Site
								{
									OFFSET 0.000000 8.688499 0.000000
								}
							}
						}
					}
				}
				JOINT newVegas:RightShoulder
				{
					OFFSET -15.263000 10.923401 -0.547700
					CHANNELS 3 Xrotation Yrotation Zrotation
					JOINT newVegas:RightArm
					{
						OFFSET -25.438599 -2.830597 -13.032500
						CHANNELS 3 Xrotation Yrotation Zrotation
						JOINT newVegas:RightForeArm
						{
							OFFSET -29.960503 0.000000 0.000000
							CHANNELS 3 Xrotation Yrotation Zrotation
							JOINT newVegas:RightHand
							{
								OFFSET -27.849251 0.000000 0.000000
								CHANNELS 3 Xrotation Yrotation Zrotation
								JOINT newVegas:RightHandThumb1
								{
									OFFSET -4.487587 -3.305161 6.305391
									CHANNELS 3 Xrotation Yrotation Zrotation
									JOINT newVegas:RightHandThumb2
									{
										OFFSET -5.480453 -3.164139 3.164143
										CHANNELS 3 Xrotation Yrotation Zrotation
										JOINT newVegas:RightHandThumb3
										{
											OFFSET -5.159721 -2.978973 2.978967
											CHANNELS 3 Xrotation Yrotation Zrotation
											End Site
											{
												OFFSET -2.494507 5.926697 1.738678
											}
										}
									}
								}
								JOINT newVegas:RightHandIndex1
								{
									OFFSET -18.578728 -0.527832 5.208049
									CHANNELS 3 Xrotation Yrotation Zrotation
									JOINT newVegas:RightHandIndex2
									{
										OFFSET -3.192009 0.000000 0.000000
										CHANNELS 3 Xrotation Yrotation Zrotation
										JOINT newVegas:RightHandIndex3
										{
											OFFSET -3.835129 0.000000 0.000000
											CHANNELS 3 Xrotation Yrotation Zrotation
											End Site
											{
												OFFSET 0.034599 3.816971 0.371180
											}
										}
									}
								}
								JOINT newVegas:RightHandMiddle1
								{
									OFFSET -18.476105 0.000000 0.000000
									CHANNELS 3 Xrotation Yrotation Zrotation
									JOINT newVegas:RightHandMiddle2
									{
										OFFSET -3.324875 0.000000 0.000000
										CHANNELS 3 Xrotation Yrotation Zrotation
										JOINT newVegas:RightHandMiddle3
										{
											OFFSET -4.596550 0.000000 0.000000
											CHANNELS 3 Xrotation Yrotation Zrotation
											End Site
											{
												OFFSET -0.057701 4.578827 0.399218
											}
										}
									}
								}
								JOINT newVegas:RightHandRing1
								{
									OFFSET -17.732719 0.121887 -4.201567
									CHANNELS 3 Xrotation Yrotation Zrotation
									JOINT newVegas:RightHandRing2
									{
										OFFSET -2.733170 0.000000 0.000000
										CHANNELS 3 Xrotation Yrotation Zrotation
										JOINT newVegas:RightHandRing3
										{
											OFFSET -3.178268 0.000000 0.000000
											CHANNELS 3 Xrotation Yrotation Zrotation
											End Site
											{
												OFFSET -0.119102 3.170624 0.185394
											}
										}
									}
								}
								JOINT newVegas:RightHandPinky1
								{
									OFFSET -15.989624 -0.606689 -7.535461
									CHANNELS 3 Xrotation Yrotation Zrotation
									JOINT newVegas:RightHandPinky2
									{
										OFFSET -2.538986 0.000000 0.000000
										CHANNELS 3 Xrotation Yrotation Zrotation
										JOINT newVegas:RightHandPinky3
										{
											OFFSET -2.593102 0.000000 0.000000
											CHANNELS 3 Xrotation Yrotation Zrotation
											End Site
											{
												OFFSET 0.150902 2.584198 0.152708
											}
										}
									}
								}
							}
							JOINT newVegas:Right_CapeC
							{
								OFFSET -15.715958 -8.608795 -6.935905
								CHANNELS 3 Xrotation Yrotation Zrotation
								JOINT newVegas:Right_CapeC1
								{
									OFFSET 0.000000 -8.688499 0.000000
									CHANNELS 3 Xrotation Yrotation Zrotation
									End Site
									{
										OFFSET 0.000000 8.688499 0.000000
									}
								}
							}
							JOINT newVegas:Right_Sleeve
							{
								OFFSET -0.267448 -0.649994 0.577675
								CHANNELS 3 Xrotation Yrotation Zrotation
								End Site
								{
									OFFSET 0.000000 15.991302 0.000000
								}
							}
						}
						JOINT newVegas:Right_CapeA
						{
							OFFSET -5.115540 -8.608795 -10.395824
							CHANNELS 3 Xrotation Yrotation Zrotation
							JOINT newVegas:Right_CapeA1
							{
								OFFSET 0.000000 -8.688499 0.000000
								CHANNELS 3 Xrotation Yrotation Zrotation
								End Site
								{
									OFFSET 0.000000 8.688499 0.000000
								}
							}
						}
						JOINT newVegas:Right_CapeB
						{
							OFFSET -26.118187 -8.608795 -7.079266
							CHANNELS 3 Xrotation Yrotation Zrotation
							JOINT newVegas:Right_CapeB1
							{
								OFFSET 0.000000 -8.688499 0.000000
								CHANNELS 3 Xrotation Yrotation Zrotation
								End Site
								{
									OFFSET 0.000000 8.688499 0.000000
								}
							}
						}
					}
				}
				JOINT newVegas:Left_Collar
				{
					OFFSET 18.625099 8.655502 8.828100
					CHANNELS 3 Xrotation Yrotation Zrotation
					JOINT newVegas:Left_Collar1
					{
						OFFSET 14.783401 10.540405 -1.259500
						CHANNELS 3 Xrotation Yrotation Zrotation
						End Site
						{
							OFFSET 0.000000 18.199875 0.000000
						}
					}
				}
				JOINT newVegas:Collar_Back
				{
					OFFSET 0.000000 15.630707 -20.132601
					CHANNELS 3 Xrotation Yrotation Zrotation
					End Site
					{
						OFFSET 0.000000 22.523010 0.000000
					}
				}
				JOINT newVegas:Left_Peck
				{
					OFFSET 17.239599 -5.132599 25.482599
					CHANNELS 3 Xrotation Yrotation Zrotation
					End Site
					{
						OFFSET 0.000000 22.523010 0.000000
					}
				}
				JOINT newVegas:Right_Peck
				{
					OFFSET -17.239599 -5.132202 25.482599
					CHANNELS 3 Xrotation Yrotation Zrotation
					End Site
					{
						OFFSET 0.000000 22.523010 0.000000
					}
				}
				JOINT newVegas:Right_Collar
				{
					OFFSET -18.625099 8.655792 8.828100
					CHANNELS 3 Xrotation Yrotation Zrotation
					JOINT newVegas:Right_Collar1
					{
						OFFSET -14.783401 10.539993 -1.259500
						CHANNELS 3 Xrotation Yrotation Zrotation
						End Site
						{
							OFFSET 0.000000 18.199631 0.000000
						}
					}
				}
			}
		}
		JOINT newVegas:Belly
		{
			OFFSET 0.000000 -6.540398 9.014299
			CHANNELS 3 Xrotation Yrotation Zrotation
			End Site
			{
				OFFSET 0.000000 11.566666 0.000000
			}
		}
	}
	JOINT newVegas:ElvisFacialAnim_Joint
	{
		OFFSET 1.000000 -95.330101 -8.825800
		CHANNELS 3 Xrotation Yrotation Zrotation
		End Site
		{
			OFFSET 0.000000 35.315800 0.000000
		}
	}
}
MOTION
Frames: 4
Frame Time: 0.016667
-3.525738 78.410332 3.056773 11.660376 -49.374133 11.268315 -0.000000 -0.000002 0.000000 -69.006904 20.606647 47.788190 51.256468 -22.124395 3.397165 2.961051 1.488315 -15.125447 -0.000000 0.000000 -0.000000 0.000001 -0.000000 -0.000000 -33.116251 3.851135 -30.939869 58.819151 4.953935 -6.674912 -30.772393 -6.442724 30.151938 -0.000000 0.000000 0.000000 0.000000 -0.000002 -0.000003 10.972559 2.720500 -2.032938 6.100705 5.566548 -4.284689 -5.786909 6.328136 -3.046183 0.458841 1.873407 -0.022577 0.458867 1.873396 -0.022574 0.000001 -0.000002 0.000001 0.458919 1.873388 -0.022576 0.458782 1.873415 -0.022572 -0.000001 -0.000002 0.000001 0.000001 -0.000002 0.000001 -1.875342 -16.181668 -2.870473 -10.644683 2.164650 -45.510636 -22.862369 -25.786227 -15.871616 2.491018 -2.511864 6.860441 18.457980 -9.513775 13.216611 -1.150212 11.255323 -8.400832 -0.000000 -0.000003 0.000004 -1.232777 -5.771974 -0.192346 0.133942 -0.197648 -4.602136 0.000001 -0.000000 -0.000002 1.884741 4.663375 -4.597390 0.476694 -1.009858 -12.986404 0.000006 -0.000001 0.000002 3.024639 7.938903 -14.103459 -0.708021 -0.566203 -18.895744 -0.000000 -0.000001 0.000001 2.010400 6.305966 -22.386527 -0.815369 -0.210768 -16.746471 -0.000003 0.000000 -0.000001 -0.000001 0.000000 -0.000001 -0.000001 0.000000 -0.000001 -0.000002 0.000000 -0.000001 -0.000000 0.000001 0.000001 0.000000 0.000000 -0.000001 -0.000000 0.000001 0.000001 -0.000001 0.000001 0.000001 -5.074636 24.343807 1.482711 6.642380 -34.733814 57.610405 -21.031986 44.833799 19.961660 -0.087206 35.608484 7.474248 55.149574 18.649553 -29.698308 -0.442565 -14.180557 7.313159 0.000002 0.000000 -0.000002 5.673415 7.585003 36.844165 1.050425 3.824526 68.900237 -0.000004 -0.000001 0.000000 -0.125703 1.886105 45.000749 -1.169026 3.204667 68.417677 0.000000 0.000001 -0.000002 -5.312006 1.216661 58.508801 -0.745224 1.667574 48.011281 0.000002 0.000001 0.000001 -7.756797 -9.376464 47.263987 -0.526050 1.541625 45.600508 0.000002 -0.000000 -0.000000 -0.000002 0.000003 -0.000003 -0.000002 0.000002 -0.000001 -0.000002 0.000002 -0.000003 0.000000 0.000001 -0.000002 0.000001 0.000001 -0.000002 0.000000 0.000001 -0.000002 0.000001 0.000001 -0.000000 0.000003 -0.000001 0.000000 0.000003 -0.000001 0.000000 0.000003 -0.000001 0.000000 0.000003 -0.000001 0.000000 0.000003 -0.000001 0.000000 0.000003 -0.000001 0.000000 0.000003 -0.000001 0.000000 -0.000001 0.000000 -0.000000 -0.000000 -0.000002 0.000000 
-3.025976 78.538094 3.766470 11.445562 -49.974353 11.072097 -0.000000 -0.000002 0.000000 -68.847747 20.655682 47.946152 52.807864 -21.716086 3.188091 1.563162 1.595299 -14.249043 -0.000000 0.000000 0.000000 -0.000001 -0.000000 0.000001 -32.374950 4.000343 -31.185206 57.155351 5.060932 -6.989018 -29.343128 -6.896892 31.028265 -0.000000 0.000000 0.000000 0.000000 0.000000 -0.000001 10.936432 2.701844 -1.997418 6.124977 5.554789 -4.185740 -5.749227 6.252875 -2.945708 0.493023 1.850768 0.088267 0.493035 1.850754 0.088263 0.000000 0.000002 0.000000 0.493035 1.850745 0.088269 0.493108 1.850783 0.088257 0.000001 -0.000001 0.000001 0.000000 0.000002 0.000000 -1.890581 -15.766093 -3.028445 -10.843712 2.172865 -45.626978 -22.239275 -25.278192 -15.651638 2.395504 -2.217316 6.686366 18.445863 -9.517017 13.239949 -1.175412 11.215357 -8.387407 0.000003 -0.000002 -0.000003 -1.232781 -5.771118 -0.170641 0.134048 -0.196784 -4.580399 0.000001 0.000002 -0.000002 1.839200 4.652771 -4.567426 0.476924 -1.008876 -12.960900 0.000001 0.000001 -0.000001 3.025059 7.940573 -14.060289 -0.707449 -0.564585 -18.852217 0.000001 -0.000001 -0.000001 2.032034 6.337674 -22.326003 -0.814706 -0.208487 -16.683562 0.000002 0.000000 0.000001 -0.000003 0.000000 -0.000001 -0.000003 0.000000 -0.000001 -0.000003 0.000000 -0.000001 0.000000 0.000002 0.000001 0.000001 0.000002 -0.000001 0.000000 0.000002 0.000001 -0.000000 0.000002 0.000001 -5.114990 24.192844 1.600718 7.019140 -34.769402 57.282853 -21.780872 43.486985 20.030044 -0.160447 36.453150 8.087204 55.149577 18.649551 -29.698305 -0.442566 -14.180548 7.313160 0.000003 -0.000000 -0.000001 5.673420 7.584999 36.844161 1.050429 3.824531 68.900237 -0.000002 -0.000000 0.000000 -0.125696 1.886101 45.000756 -1.169027 3.204668 68.417677 0.000000 0.000000 0.000000 -5.312006 1.216661 58.508794 -0.745226 1.667565 48.011278 0.000002 0.000001 0.000001 -7.756790 -9.376472 47.263990 -0.526054 1.541624 45.600508 0.000001 0.000002 -0.000000 -0.000001 -0.000002 -0.000000 -0.000002 0.000002 -0.000003 -0.000001 -0.000002 -0.000000 0.000001 0.000003 0.000003 0.000002 0.000003 0.000004 0.000001 0.000003 0.000003 0.000002 0.000003 0.000006 0.000002 -0.000003 0.000001 0.000002 -0.000003 0.000001 0.000002 -0.000003 0.000001 0.000002 -0.000003 0.000001 0.000002 -0.000003 0.000001 0.000002 -0.000003 0.000001 0.000002 -0.000003 0.000001 0.000001 0.000003 -0.000001 -0.000000 -0.000002 0.000000 
-2.410760 78.731117 4.468025 11.260007 -50.745143 10.924911 0.000000 0.000003 -0.000000 -68.546242 20.862842 48.084310 54.115172 -21.271497 2.924038 0.222560 1.752764 -13.366602 0.000000 -0.000000 -0.000000 0.000000 -0.000000 -0.000000 -31.717302 4.174200 -31.474546 55.247358 5.217490 -7.255337 -27.757798 -7.160117 31.899425 -0.000000 0.000000 0.000000 0.000003 -0.000003 -0.000000 10.838916 2.693068 -1.956557 6.211053 5.531382 -4.085915 -5.634574 6.080640 -2.847561 0.511962 1.796267 0.223597 0.511978 1.796245 0.223597 -0.000000 0.000003 -0.000001 0.511967 1.796259 0.223597 0.512043 1.796275 0.223594 -0.000000 -0.000001 0.000001 -0.000000 0.000003 -0.000001 -1.898938 -15.838095 -3.026465 -10.916588 3.036744 -45.852706 -21.654531 -24.915502 -15.679252 2.318332 -2.084234 6.697811 18.431660 -9.520766 13.267334 -1.205864 11.169467 -8.368950 -0.000003 -0.000001 -0.000004 -1.232800 -5.770119 -0.145180 0.134133 -0.195816 -4.554974 -0.000003 -0.000001 -0.000000 1.785770 4.640258 -4.532350 0.477197 -1.007130 -12.930996 0.000001 -0.000002 0.000001 3.025554 7.942510 -14.009664 -0.706796 -0.562729 -18.801284 0.000002 0.000001 -0.000001 2.057240 6.374994 -22.255015 -0.813898 -0.205805 -16.609780 -0.000003 0.000000 0.000000 0.000005 -0.000003 0.000000 0.000005 -0.000003 0.000000 0.000004 -0.000003 0.000000 -0.000003 0.000001 -0.000003 -0.000003 0.000001 -0.000005 -0.000003 0.000001 -0.000003 -0.000004 0.000002 -0.000004 -5.162242 24.117342 1.733595 7.217166 -34.742905 57.034812 -22.411831 42.270081 20.016546 -0.144736 37.048879 8.544436 55.149577 18.649546 -29.698311 -0.442565 -14.180555 7.313160 0.000001 -0.000009 -0.000002 5.673417 7.584999 36.844165 1.050425 3.824529 68.900237 0.000001 -0.000001 0.000001 -0.125703 1.886101 45.000756 -1.169026 3.204666 68.417677 0.000001 -0.000001 -0.000001 -5.312013 1.216663 58.508794 -0.745226 1.667569 48.011278 -0.000001 -0.000001 -0.000000 -7.756791 -9.376472 47.263990 -0.526054 1.541623 45.600508 -0.000001 0.000002 -0.000002 0.000003 -0.000001 0.000002 0.000001 0.000000 0.000000 0.000003 -0.000001 0.000001 0.000003 -0.000001 0.000003 0.000003 -0.000001 0.000003 0.000003 -0.000001 0.000003 0.000003 -0.000001 0.000005 -0.000000 0.000002 -0.000001 -0.000000 0.000002 -0.000001 -0.000000 0.000002 -0.000001 -0.000000 0.000002 -0.000001 -0.000000 0.000002 -0.000001 -0.000000 0.000002 -0.000001 -0.000000 0.000002 -0.000001 0.000000 0.000002 -0.000000 0.000000 0.000003 -0.000000 
-1.706688 78.957909 5.242658 11.158419 -51.739694 10.845804 0.000000 -0.000002 0.000000 -68.144729 21.148188 48.211792 55.490663 -20.720227 2.644316 -1.302885 2.006287 -12.445376 0.000000 0.000000 -0.000000 -0.000000 0.000001 -0.000000 -31.100030 4.344847 -31.921449 52.945028 5.513064 -7.408512 -26.003319 -7.230015 32.805265 0.000000 -0.000002 -0.000000 0.000001 0.000001 -0.000000 10.684125 2.673843 -1.902799 6.304674 5.446445 -3.965666 -5.493483 5.769522 -2.734773 0.530998 1.718741 0.375736 0.530992 1.718723 0.375737 0.000003 0.000000 -0.000000 0.530994 1.718735 0.375735 0.531070 1.718735 0.375731 -0.000000 -0.000001 -0.000001 0.000003 0.000000 -0.000000 -1.912180 -15.416613 -3.171544 -11.148253 3.692016 -46.007522 -20.985189 -24.405053 -15.663031 2.270419 -1.926655 6.652095 18.404095 -9.528077 13.320411 -1.265177 11.080879 -8.332371 0.000002 0.000001 -0.000001 -1.232754 -5.768235 -0.095808 0.134290 -0.193900 -4.505595 -0.000003 -0.000002 0.000001 1.682318 4.615617 -4.464383 0.477667 -1.002996 -12.873076 -0.000002 -0.000000 0.000004 3.030796 7.946177 -13.912195 -0.705578 -0.559058 -18.702508 0.000001 -0.000001 0.000001 2.105537 6.447778 -22.117577 -0.813380 -0.200594 -16.466589 0.000007 0.000003 0.000000 -0.000003 -0.000001 0.000001 -0.000003 -0.000001 0.000001 -0.000003 -0.000001 0.000001 -0.000003 -0.000001 -0.000003 -0.000003 -0.000001 -0.000006 -0.000003 -0.000001 -0.000003 -0.000004 0.000000 -0.000003 -5.215421 24.184382 1.892622 6.918577 -34.742174 56.575287 -22.804864 40.833514 19.736819 -0.060797 37.536585 9.176392 55.149567 18.649557 -29.698308 -0.442566 -14.180552 7.313162 -0.000000 -0.000003 0.000001 5.673417 7.585000 36.844165 1.050427 3.824532 68.900237 -0.000000 0.000000 0.000001 -0.125699 1.886101 45.000766 -1.169027 3.204662 68.417677 0.000002 0.000001 -0.000002 -5.312009 1.216660 58.508794 -0.745224 1.667571 48.011278 -0.000002 -0.000001 0.000002 -7.756789 -9.376470 47.263987 -0.526055 1.541623 45.600508 0.000006 -0.000002 0.000006 0.000002 0.000001 0.000001 -0.000000 0.000001 0.000001 0.000002 0.000001 -0.000001 0.000001 0.000001 0.000001 0.000002 0.000001 -0.000000 0.000001 0.000001 0.000001 0.000002 0.000001 0.000002 0.000001 -0.000002 0.000001 0.000001 -0.000002 0.000001 0.000001 -0.000002 0.000001 0.000001 -0.000002 0.000001 0.000001 -0.000002 0.000001 0.000001 -0.000002 0.000001 0.000001 -0.000002 0.000001 -0.000000 0.000002 -0.000000 0.000000 -0.000002 0.000000 
